<?xml version="1.0" standalone="no"?>
<!DOCTYPE svg PUBLIC "-//W3C//DTD SVG 20010904//EN"
 "http://www.w3.org/TR/2001/REC-SVG-20010904/DTD/svg10.dtd">
<svg version="1.0" xmlns="http://www.w3.org/2000/svg"
 width="700.000000pt" height="700.000000pt" viewBox="0 0 700.000000 700.000000"
 preserveAspectRatio="xMidYMid meet">
<metadata>
Created by potrace 1.11, written by Peter Selinger 2001-2013
</metadata>
<g transform="translate(0.000000,700.000000) scale(0.100000,-0.100000)"
fill="#000000" stroke="none">
<path d="M2449 3746 c-2 -2 -35 -6 -74 -9 -59 -4 -72 -8 -92 -32 -23 -26 -23
-27 -6 -55 13 -23 27 -31 62 -37 54 -9 1944 -10 2171 -1 166 7 185 10 200 39
10 18 -2 68 -17 70 -25 4 -76 9 -133 14 -71 6 -2105 17 -2111 11z"/>
<path d="M3455 3322 c-36 -8 -55 -28 -120 -130 -109 -172 -443 -733 -630
-1057 -73 -127 -86 -178 -59 -224 21 -35 41 -41 149 -48 87 -5 1328 -4 1410 1
28 2 67 4 88 5 51 1 79 31 76 79 -7 91 -64 195 -478 877 -230 377 -290 467
-321 482 -30 13 -87 21 -115 15z"/>
</g>
</svg>
